<?xml version="1.0" encoding="utf-8"?>
<!-- Generator: Adobe Illustrator 16.0.0, SVG Export Plug-In . SVG Version: 6.00 Build 0)  -->
<!DOCTYPE svg PUBLIC "-//W3C//DTD SVG 1.1//EN" "http://www.w3.org/Graphics/SVG/1.1/DTD/svg11.dtd">
<svg version="1.1" id="Layer" xmlns="http://www.w3.org/2000/svg" xmlns:xlink="http://www.w3.org/1999/xlink" x="0px" y="0px"
	 width="512px" height="512px" viewBox="0 0 512 512" enable-background="new 0 0 512 512" xml:space="preserve">
<g>
	<path fill-rule="evenodd" clip-rule="evenodd" fill="#FCD336" d="M442.6,158c1.2,0.7,2.4,1.5,3.6,2.2c0.5,0.3,0.9,0.7,0.6,1.2
		c-0.3,0.6-0.9,0.4-1.3,0.1c-2.3-1.5-4.7-2.9-7-4.4c-0.5-0.3-0.9-0.6-0.6-1.2c0.4-0.7,0.9-0.3,1.4,0
		C440.4,156.6,441.5,157.3,442.6,158z"/>
	<path fill-rule="evenodd" clip-rule="evenodd" fill="#FCD336" d="M441.1,146.6c-0.3-0.2-0.3-0.5-0.3-0.8c0.1-0.5,0.4-0.5,0.8-0.5
		c1.3,0,2.6,0.1,4,0.1c1.6,0.1,3.2,0.1,4.8,0.2c0.5,0,0.8,0.2,0.8,0.8c0,0.6-0.4,0.7-0.8,0.6c-3-0.1-5.9-0.2-8.9-0.3
		C441.4,146.6,441.3,146.6,441.1,146.6z"/>
	<path fill-rule="evenodd" clip-rule="evenodd" fill="#FCD336" d="M435.4,172c-0.6,0.5-1,0.3-1.3-0.3c-0.7-1.3-1.4-2.5-2-3.8
		c-0.7-1.3-1.3-2.5-2-3.8c-0.3-0.5-0.4-0.9,0.2-1.2c0.6-0.3,0.9,0.1,1.1,0.5c1.3,2.5,2.7,5,4,7.5C435.5,171.3,435.6,171.7,435.4,172
		z"/>
	<path fill-rule="evenodd" clip-rule="evenodd" fill="#FCD336" d="M447.7,131.7c-0.2,0.1-0.4,0.2-0.6,0.3c-2.4,1.3-4.9,2.6-7.3,3.9
		c-0.5,0.3-1,0.5-1.3-0.2c-0.3-0.6,0.2-0.9,0.6-1.1c2.5-1.3,5-2.7,7.5-4c0.4-0.2,0.8-0.4,1.1,0C447.8,130.9,448,131.3,447.7,131.7z"
		/>
	<path fill-rule="evenodd" clip-rule="evenodd" fill="#FCD336" d="M434.7,124.1c-0.8,1.2-1.5,2.4-2.3,3.6c-0.3,0.4-0.5,0.7-1,0.4
		c-0.5-0.3-0.4-0.7-0.1-1.1c1.5-2.4,3-4.9,4.5-7.3c0.3-0.4,0.6-0.8,1.1-0.4c0.5,0.3,0.3,0.7,0.1,1.1
		C436.2,121.6,435.5,122.8,434.7,124.1z"/>
	<g>
		<g>
			<path fill="#CACACA" d="M394.8,102h-285c-0.2,0-0.4-0.2-0.4-0.4c0-0.2,0.2-0.4,0.4-0.4h285c0.2,0,0.4,0.2,0.4,0.4
				C395.2,101.8,395,102,394.8,102z"/>
			<ellipse fill="#3F3D56" cx="119.2" cy="91.4" rx="4.5" ry="4.7"/>
			<ellipse fill="#3F3D56" cx="134.9" cy="91.4" rx="4.5" ry="4.7"/>
			<ellipse fill="#3F3D56" cx="150.6" cy="91.4" rx="4.5" ry="4.7"/>
			<path fill="#F0F0F0" d="M352.8,245.8H136.4c-4.8,0-8.6-3.9-8.6-8.6V129.5c0-4.8,3.9-8.6,8.6-8.6h216.4c4.8,0,8.6,3.9,8.6,8.6
				v107.7C361.4,242,357.6,245.8,352.8,245.8z"/>
			<path fill="#FFFFFF" d="M376.6,275.2H160.2c-4.8,0-8.6-3.9-8.6-8.6V158.9c0-4.8,3.9-8.6,8.6-8.6h216.4c4.8,0,8.6,3.9,8.6,8.6
				v107.7C385.2,271.4,381.3,275.2,376.6,275.2z"/>
			<path fill="#E4E4E4" d="M376.6,275.2H160.2c-4.8,0-8.6-3.9-8.6-8.6V158.9c0-4.8,3.9-8.6,8.6-8.6h216.4c4.8,0,8.6,3.9,8.6,8.6
				v107.7C385.2,271.4,381.3,275.2,376.6,275.2z M160.2,151.6c-4.1,0-7.4,3.3-7.4,7.4v107.7c0,4.1,3.3,7.4,7.4,7.4h216.4
				c4.1,0,7.4-3.3,7.4-7.4V158.9c0-4.1-3.3-7.4-7.4-7.4H160.2z"/>
			<path fill="#44E0CC" d="M176.8,256.4h173v-29.7c-0.1-6.3-2.6-12.3-7.2-16.7l0,0c-3.1-3.1-13.4-11-24.1-10.3
				c-5.6,0.4-10.5,3.1-14.4,8.1c-12.1,15.6-28,10.3-36.4,5.8c-7.4-4-15-5.9-22.5-5.6c-10.5,0.4-25.3,4.3-36.1,20.4
				c-4.1,6.1-13.1,14.5-32.4,19.4V256.4z"/>
			<path fill="#3F3D56" d="M359.6,257.1H177.1c-0.3,0-0.6-0.3-0.6-0.6V169c0-0.3,0.3-0.6,0.6-0.6c0.3,0,0.6,0.3,0.6,0.6v86.9h181.9
				c0.3,0,0.6,0.3,0.6,0.6C360.2,256.8,359.9,257.1,359.6,257.1L359.6,257.1z"/>
			<circle fill="#3F3D56" cx="244.9" cy="208.9" r="3.4"/>
			<circle fill="#3F3D56" cx="312.1" cy="199.9" r="3.4"/>
			<circle fill="#3F3D56" cx="278.5" cy="218.4" r="3.4"/>
			<circle fill="#3F3D56" cx="211.3" cy="223.4" r="3.4"/>
		</g>
		<g>
			<polygon fill="#FFB8B8" points="398.6,366.3 390.9,366.3 393.4,386.6 398.6,386.6 			"/>
			<path fill="#2F2E41" d="M383,391.5v0.2h17v-6.8h-1.5l-5.6-2.3l-0.2-0.1l-3.1,2.3c-0.9,0-1.7,0.2-2.5,0.5
				c-0.8,0.3-1.5,0.8-2.1,1.4C383.7,388,383,389.7,383,391.5z"/>
			<polygon fill="#FFB8B8" points="374.2,366.3 366.4,366.3 368.9,386.6 374.2,386.6 			"/>
			<path fill="#2F2E41" d="M358.6,391.5v0.2h17l0-6.8h-1.5l-5.6-2.3l-0.2-0.1l-3.1,2.3c-0.9,0-1.7,0.2-2.5,0.5
				c-0.8,0.3-1.5,0.8-2.1,1.4C359.3,388,358.6,389.7,358.6,391.5z"/>
			<path fill="#2F2E41" d="M367.1,288.1l-1.4,5.2v1.5c0.2,0.5,0.3,1.1,0.3,1.6c0,1.1-0.4,37.4-0.4,37.4l-1.8,34.4c0,0,0,1.9-0.4,2.3
				c-0.4,0.4,0,0.7,0.9,2.5c0.9,1.8,0.9,1.5,0.2,2.5c-0.7,1.1,0.7,4.1,0.7,4.1l10.8-0.2l-0.4-1.8c-0.4-1.8,0,0,1.1-1.1
				c1.1-1.1-0.4-0.7-0.7-2.2c-0.4-1.4-0.4-1.1,0.4-1.8c0.7-0.7,0.7-31.6,0.7-31.6l10.4-35.2l4.3,36c0,0-2.2,27.7-2.2,28.4
				c-0.1,0.8-0.2,1.5-0.4,2.2c0,0-0.6,0.6-0.6,1c0,0.4,0.7,2.5,0.7,2.9c0,0.4,0.7,4,0.7,4h8.7c0.6-0.7,1.2-1.5,1.8-2.2
				c0.7-0.7,0,0-0.7-1.8c-0.7-1.8,0-1.1,0.7-1.8c0.7-0.7,3.2-36.3,3.2-36.3l3.6-20.5c0,0-1.1-2.5-1.5-3c-0.5-0.5,3.3-4.6,2.6-7.1
				c-0.7-2.5,0-2.5,1.4-4c1.4-1.4,0.7-6.8,0.7-6.8l0.7-20.1l-41.3-1.1L367.1,288.1z"/>
			<path fill="#FFB8B8" d="M323.2,197.1c-0.6-1.8,0-3.7,1.6-4.7c1.9-1.2,4.4-0.7,5.6,1.1l17.6,13.4l-1,7.3l-17.9-15
				c-0.2,0.1-0.4,0.2-0.6,0.3C326.2,200.3,323.9,199.2,323.2,197.1L323.2,197.1z"/>
			<circle fill="#FFB8B8" cx="402.3" cy="192.2" r="11.1"/>
			<path fill="#2F2E41" d="M391.6,187.5c0,0,1.1-2.4,3.1-3.1c0,0.4,0.1,0.8,0.3,1.2c0.6,1.4,2.2,2.1,3.7,2.1
				c1.3-0.1,2.5-0.3,3.7-0.8c0.1,0,0.1,0,0.2,0.1l-2.9,2.3l7.1-0.9l-2.9,1.5c1.7,0.8,3.7,0.3,5.5-0.4l-1.7,9.8c0,0,1.8-1.5,2.9,0.1
				c1.1,1.6,7.3-9.7,3.5-13.3c0,0-1.2-8.4-8.3-8.6c-7-0.2-11.5,1.2-12.5,3.7C392.5,183.2,391.9,185.3,391.6,187.5z"/>
			<path fill="#3F3D56" d="M389.3,210.2l-3.6,1.5c-1.1,0-2.1-0.7-2.6-1.7c-0.8-1.7-3.8,0-3.8,0s-9-0.7-12.3,1c0,0-5.3-2.3-6.1-2.4
				c-0.8-0.1-1.9-0.8-2.4-0.6c-0.5,0.1-1.2-1-1.6-0.9c-0.4,0.1-0.5-0.8-1.7-1.1c-1.2-0.3-1.7,0.1-3-1.3c-1.3-1.4-7.9-3.2-7.9-3.2
				l-0.8,0.2l-1.4-0.6c0,0-3.3,6.2-4.3,5.9l2,4.1c2.2,2.1,4.9,3.7,7.7,4.9c5,2,4.6,2.6,4.6,2.6s15,7.7,17.4,7.5
				c2.3-0.1,5.9,13.7,4.9,16.3c-1,2.6-2.6,21.1-2.6,21.1s-1.5,3.9,0.1,6.6c0,0-3.6,7.6-4,8.5c0,0,27,2.9,34.6-0.5
				c0,0,11.1,0.5,10-1.1c-1.1-1.6,1.1-5.1,1.1-5.1l-5.1-23.7l11.7-11.8c0,0,1.8-9.9-6.2-16.2l-5.3-4.7c0,0-3-2.6-3.9-2.7
				c-0.9-0.2-0.6,0-0.6,0s4.3-6.8-2.9-8c-3.9-0.7-5.5-1-8-1C393.4,203,389.5,210.9,389.3,210.2z"/>
			<path fill="#E6E6E6" d="M383.3,297.5H359c-1.4,0-2.4-1.1-2.4-2.4V263c0-1.4,1.1-2.4,2.4-2.4h24.2c1.4,0,2.4,1.1,2.4,2.4v32.1
				C385.7,296.4,384.6,297.5,383.3,297.5z"/>
			<path fill="#FFFFFF" d="M373.6,295.6h-12.9c-1.3,0-2.3-1-2.3-2.3v-28.5c0-1.3,1-2.3,2.3-2.3h20.8c1.3,0,2.3,1,2.3,2.3v20.6
				C383.8,291,379.3,295.6,373.6,295.6z"/>
			<path fill="#E6E6E6" d="M378.2,272.8h-14.4l0,0c-1.2,0-2.2-1-2.2-2.2c0-1.2,1-2.2,2.2-2.2h14.4c1.2,0,2.2,1,2.2,2.2
				C380.5,271.8,379.5,272.8,378.2,272.8z"/>
			<path fill="#E6E6E6" d="M378.2,279.7h-14.4l0,0c-1.2,0-2.2-1-2.2-2.2s1-2.2,2.2-2.2h14.4c1.2,0,2.2,1,2.2,2.2
				C380.5,278.7,379.5,279.7,378.2,279.7z"/>
			<path fill="#E6E6E6" d="M378.2,286.7h-14.4l0,0c-1.2,0-2.2-1-2.2-2.2c0-1.2,1-2.2,2.2-2.2h14.4c1.2,0,2.2,1,2.2,2.2
				C380.5,285.7,379.5,286.7,378.2,286.7z"/>
			<path fill="#FFB8B8" d="M385.1,283.9c-1.7,0-3.2-1.2-3.6-2.9c-0.5-2,0.8-4,2.8-4.5l19.2-11.5l6.1,3.3l-20.7,11.3
				c0,0.2,0,0.4,0,0.7C388.9,282.3,387.2,283.9,385.1,283.9L385.1,283.9z"/>
			<path fill="#3F3D56" d="M393.2,271l2-3l0.5-2.4l2.3-0.4l5.2-5.3l3.1-24.5c0-0.4,0.1-0.7,0.2-1.1c1.2-5,6.3-8.1,11.3-6.8l0,0
				c4.8,1.2,7.8,5.9,6.9,10.8l-9.7,28.6l0,0.1l-6.1,4.3l-1.8,0.9l-2.6,2.2l-7.3,1.3L393.2,271z"/>
		</g>
		<path fill-rule="evenodd" clip-rule="evenodd" fill="#54A7DC" d="M317.5,104.5c0,1.1,0,2.3,0,3.4c0,14.5-0.1,14.3-13.1,20.9
			c-5,2.6-9.5,6.1-14.1,9.3c-1.6,1.1-1.2,2.6-0.1,4c16.3,19.2,45.7,16,57.5-5.4c6.5-11.7,5.3-29.1-5.5-39.7
			c-5.5-5.4-11.5-8.9-18.8-10.6c-4.3-1-5.8,0.1-5.9,4.5C317.5,95.4,317.5,100,317.5,104.5z"/>
		<path fill-rule="evenodd" clip-rule="evenodd" fill="#44E0CC" d="M312.2,98c0-5,0-10,0-14.9c0-2.2-0.7-3.5-3.2-3.4
			c-11.1,0.6-19.6,6-26.6,14.3c-1.3,1.6-0.4,2.6,0.9,3.5c8.4,5.8,16.9,11.6,25.3,17.3c2.7,1.8,3.7,0.9,3.6-2.2
			C312.2,107.6,312.3,102.8,312.2,98C312.3,98,312.2,98,312.2,98z"/>
		<path fill-rule="evenodd" clip-rule="evenodd" fill="#FCD336" d="M279.3,117.8c0.1,6,1,10.3,2.9,14.3c1.1,2.3,2.1,3,4.4,1.5
			c6.5-4.3,13.1-8.4,19.7-12.6c1.8-1.1,2.2-2,0.2-3.3c-6.8-4.6-13.7-9.2-20.4-13.9c-1.9-1.3-2.6,0-3.2,1.2
			C280.4,109.5,279.4,114.3,279.3,117.8z"/>
		<rect x="192.9" y="158.5" opacity="0.5" fill="#76DBF7" width="43.7" height="41.5"/>
		<rect x="197.9" y="163.5" fill="#54A7DC" width="33.7" height="25.8"/>
		<rect x="212.3" y="167.7" fill="#FCD336" width="11.8" height="11.8"/>
		<path fill="#3F3D56" d="M205.3,170.7V185h14.4v-14.4H205.3z M205.9,171.3H219v13.1h-13.1V171.3z"/>
		<rect x="213.3" y="191.8" fill="#F2F2F2" width="18.3" height="1"/>
		<circle fill="#3F3D56" cx="214.7" cy="160.9" r="1.9"/>
		<path fill-rule="evenodd" clip-rule="evenodd" fill="#FCD336" d="M398.8,132.4c-1.2-0.7-2.4-1.5-3.6-2.2c-0.4-0.3-0.8-0.6-0.5-1.2
			c0.3-0.5,0.8-0.4,1.3-0.1c2.4,1.5,4.8,3,7.2,4.5c0.5,0.3,0.8,0.6,0.5,1.2c-0.3,0.5-0.8,0.4-1.3,0.1
			C401.2,133.9,400,133.2,398.8,132.4z"/>
		<path fill-rule="evenodd" clip-rule="evenodd" fill="#FCD336" d="M390.5,144.8c-0.3-0.2-0.4-0.4-0.3-0.8c0.1-0.5,0.5-0.5,0.8-0.5
			c1.1,0,2.3,0.1,3.4,0.1c1.7,0.1,3.4,0.1,5.1,0.2c0.5,0,1.2-0.1,1.2,0.8c0,0.8-0.6,0.7-1.1,0.6c-2.6-0.1-5.3-0.2-7.9-0.3
			C391.2,144.9,390.8,145,390.5,144.8z"/>
		<path fill-rule="evenodd" clip-rule="evenodd" fill="#FCD336" d="M422.1,124.7c-0.2,0.4-0.5,0.4-0.8,0.4c-0.4-0.1-0.5-0.4-0.5-0.8
			c0.1-1.7,0.1-3.4,0.2-5.2c0-1.2,0.1-2.4,0.1-3.6c0-0.6,0.2-0.8,0.8-0.8c0.5,0,0.7,0.4,0.6,0.8c-0.1,2.9-0.2,5.9-0.3,8.8
			C422.1,124.5,422.1,124.6,422.1,124.7z"/>
		<path fill-rule="evenodd" clip-rule="evenodd" fill="#FCD336" d="M411.6,127.2c-0.2,0.2-0.4,0.4-0.7,0.4c-0.5,0-0.6-0.3-0.8-0.7
			c-1.1-2-2.2-4.1-3.3-6.1c-0.3-0.5-0.5-1-0.8-1.5c-0.2-0.4-0.3-0.9,0.2-1.1c0.5-0.3,0.8,0,1.1,0.5c0.8,1.6,1.7,3.2,2.5,4.8
			c0.5,1,1,1.9,1.6,2.9C411.6,126.6,411.7,126.9,411.6,127.2z"/>
		<path fill-rule="evenodd" clip-rule="evenodd" fill="#F9F5C7" d="M406.2,156.4c0.8-3,0.9-6,0.5-9.2c-1.4-11.2,9.2-19.5,19.6-15.2
			c8,3.3,10.7,12.4,7.3,19.3c-1.8,3.6-4.6,6.1-8.4,7.3c-3,1-5.7,2.5-8.1,4.6c-0.9-0.6-1.8-1.2-2.7-1.7c-0.7-0.4-0.7-0.7-0.2-1.3
			c2-2.4,4.1-4.7,6.4-6.9c0.5-0.5,1-0.9,1.8-0.5c0.4,0.2,0.9,0.1,1.3-0.1c0.6-0.3,1-0.8,0.8-1.5c-0.2-0.7-0.9-0.7-1.5-0.5
			c-0.3,0.1-0.6,0.2-0.8,0.4c-0.7,0.7-1.3,0.3-1.9-0.1c-0.5-0.3-0.7-0.8-1-1.3c-0.4-0.6-0.3-1,0.5-1.2c0.5-0.1,1-0.4,1.4-0.6
			c0.7-0.5,1.1-1.2,0.8-2.1c-0.3-0.9-1.6-1.6-2.5-1.5c-1,0.1-1.4,0.8-1.5,1.7c-0.1,0.6,0,1.2,0,1.8c0,0.2,0.2,0.5-0.1,0.6
			c-0.9,0.2-1.8,0.1-2.7-0.3c-0.7-0.3-0.9-0.8-0.7-1.5c0.1-0.3,0-0.7,0-1.1c-0.1-0.5-0.4-1-1-0.9c-0.6,0.1-0.9,0.4-1,1
			c-0.1,0.7,0.2,1.3,0.7,1.8c0.3,0.3,0.5,0.6,0.3,1.1c-0.9,3.3-2.2,6.4-3.6,9.5c-0.2,0.6-0.5,0.6-1,0.3
			C408.1,157.5,407.1,156.9,406.2,156.4z"/>
		<path fill-rule="evenodd" clip-rule="evenodd" fill="#FCD336" d="M406.2,156.4c0.9,0.6,1.9,1.1,2.8,1.7c0.5,0.3,0.8,0.3,1-0.3
			c1.4-3.1,2.7-6.2,3.6-9.5c0.1-0.5-0.1-0.8-0.3-1.1c-0.5-0.5-0.8-1.1-0.7-1.8c0.1-0.6,0.4-0.9,1-1c0.7-0.1,0.9,0.4,1,0.9
			c0.1,0.4,0.1,0.8,0,1.1c-0.2,0.7,0,1.1,0.7,1.5c0.9,0.4,1.7,0.5,2.7,0.3c0.3-0.1,0.1-0.4,0.1-0.6c0-0.6-0.1-1.2,0-1.8
			c0.1-0.9,0.5-1.6,1.5-1.7c0.9-0.1,2.2,0.6,2.5,1.5c0.4,0.9-0.1,1.6-0.8,2.1c-0.4,0.3-0.9,0.5-1.4,0.6c-0.8,0.2-0.8,0.6-0.5,1.2
			c0.3,0.5,0.5,1,1,1.3c0.6,0.5,1.2,0.9,1.9,0.1c0.2-0.2,0.5-0.3,0.8-0.4c0.6-0.2,1.2-0.2,1.5,0.5c0.2,0.7-0.1,1.2-0.8,1.5
			c-0.4,0.2-0.9,0.2-1.3,0.1c-0.8-0.4-1.3,0-1.8,0.5c-2.3,2.1-4.3,4.5-6.4,6.9c-0.5,0.5-0.5,0.9,0.2,1.3c0.9,0.5,1.8,1.1,2.7,1.7
			c-0.2,0.1-0.3,0.3-0.5,0.4c-0.6,0.1-0.9,0.4-1.2,1.1c-0.3,0.8-1.3,1.3-1.3,2.3c0,0.1-0.3,0.3-0.4,0.3c-0.7,0-0.7,0.4-0.5,0.9
			c0.1,0.3,0,0.7-0.3,0.8c-1.3,0.5-2.2,2.1-3.9,1c-0.1-0.1-0.2-0.1-0.3-0.1c-1.8,0.6-2.9-0.7-4-1.5c-0.9-0.7-1.6-2-2-3.1
			c-0.3-0.8-0.3-1.9,0.2-2.6c0.5-0.7,1.2-1.3,1.3-2.3c0-0.1,0.3-0.3,0.5-0.3c0.5-0.1,0.7-0.2,0.4-0.7c-0.1-0.2-0.1-0.6,0-0.6
			C406.4,158.3,406,157.2,406.2,156.4z M411.6,159.7c0.3,0.2,0.6,0.4,0.9,0.6c0.4,0.3,0.6,0.2,0.9-0.2c2.1-2.6,4.3-5.2,6.8-7.4
			c0.4-0.4,0.4-0.5-0.1-0.8c-0.9-0.5-1.5-1.3-1.8-2.3c-0.1-0.5-0.3-0.5-0.8-0.5c-1,0.2-1.9,0.1-2.7-0.5c-0.5-0.4-0.7-0.2-0.8,0.4
			c-0.8,2.9-2,5.7-3.2,8.5C410.4,158.9,410.4,158.9,411.6,159.7z M418.9,145.7c-0.3,0.7-0.2,1.5,0.1,2.3c0.1,0.3,2-0.6,2.2-1.1
			c0.5-0.8-0.1-1.2-0.7-1.6C420,145,419.4,144.8,418.9,145.7z M422.4,152c0.2,0.3,0.4,0.3,0.7,0.3c0.3,0,0.7,0,0.8-0.4
			c0-0.1,0-0.3-0.1-0.3c-0.3-0.1-0.6,0-0.8,0.1C422.7,151.8,422.6,151.9,422.4,152z M413.7,146.7c0.3-0.5,0.2-1,0-1.4
			c0,0-0.3,0-0.4,0.1C413.1,145.9,413.4,146.3,413.7,146.7z"/>
		<path fill-rule="evenodd" clip-rule="evenodd" fill="#F9F5C7" d="M411.6,159.7c-1.3-0.8-1.3-0.8-0.7-2.2c1.2-2.8,2.4-5.6,3.2-8.5
			c0.2-0.6,0.3-0.7,0.8-0.4c0.8,0.6,1.8,0.7,2.7,0.5c0.5-0.1,0.6,0,0.8,0.5c0.3,1,0.8,1.8,1.8,2.3c0.4,0.3,0.4,0.4,0.1,0.8
			c-2.5,2.3-4.7,4.8-6.8,7.4c-0.3,0.3-0.5,0.5-0.9,0.2C412.3,160.1,411.9,159.9,411.6,159.7z"/>
		<path fill-rule="evenodd" clip-rule="evenodd" fill="#F9F5C7" d="M418.9,145.7c0.5-0.8,1.1-0.7,1.7-0.3c0.6,0.3,1.1,0.8,0.7,1.6
			c-0.3,0.5-2.1,1.4-2.2,1.1C418.7,147.2,418.7,146.4,418.9,145.7z"/>
		<path fill-rule="evenodd" clip-rule="evenodd" fill="#F9F5C7" d="M422.4,152c0.2-0.1,0.4-0.2,0.6-0.3c0.3-0.1,0.5-0.3,0.8-0.1
			c0.1,0,0.1,0.2,0.1,0.3c-0.1,0.4-0.5,0.4-0.8,0.4C422.8,152.3,422.5,152.3,422.4,152z"/>
		<path fill-rule="evenodd" clip-rule="evenodd" fill="#F9F5C7" d="M413.7,146.7c-0.4-0.4-0.6-0.8-0.4-1.3c0-0.1,0.4-0.1,0.4-0.1
			C414,145.8,414.1,146.2,413.7,146.7z"/>
		<g>
			<path fill="#FFB8B8" d="M331.8,338.6c0,15.1-12.2,27.3-27.3,27.3c-15.1,0-27.3-12.2-27.3-27.3c0-15.1,12.2-27.3,27.3-27.3
				C319.6,311.4,331.8,323.6,331.8,338.6z"/>
			<path fill="#FF6584" d="M334,428.3l-12.1-53.8l-0.5,0c-10.2,0.7-38.2,1.7-38.5,1.8l-0.5,0l-3.4,53.6L334,428.3z"/>
			<path fill="#2F2E41" d="M319.7,388.1l6.7,41h22.9l-2.4-29.6c-0.4-5-3-9.5-7.2-12.3l-8.5-5.8c0.8-2.9-0.8-5.9-3.7-6.7
				c-0.6-0.2-1.1-0.2-1.7-0.2l-2.4,0.1c-1.3-0.9-3-0.5-3.9,0.7c-0.4,0.6-0.6,1.4-0.4,2.2L319.7,388.1z"/>
			<path fill="#2F2E41" d="M338.4,428.8h22.1l-4.1-30.2c-0.5-6-5.7-10.5-11.6-10c-0.8,0.1-1.6,0.2-2.4,0.5c-5,1.6-8.2,6.5-7.5,11.7
				L338.4,428.8z"/>
			<path fill="#2F2E41" d="M267.2,429.1h38.2l-5.9-29.3l-6.8-25c-0.3-0.9-0.9-1.6-1.8-2c-1-0.4-2.2-0.1-2.9,0.8
				c-4.8-1.4-9.9-0.9-14.3,1.4l-9.6,5.1c-4.4,2.3-6.7,7.3-5.5,12.1L267.2,429.1z"/>
			<path fill="#2F2E41" d="M269.7,429.1l8.8-31.4c1.9-7-2.1-14.2-9.1-16.1c-0.3-0.1-0.6-0.2-0.9-0.2c-6.4-1.3-12.9,2.4-15,8.6
				l-13.3,39.1H269.7z"/>
			<path fill="#2F2E41" d="M301.9,345.5c1.4-2.6-1.6-6-4.6-5.6c-3,0.4-5.1,3.3-5.6,6.2c-0.5,2.9,0.2,5.9,0.7,8.9
				c0.5,1.9,0.5,3.9,0.1,5.8c-0.6,1.9-2.4,3.5-4.4,3.3c-2.2-0.3-3.5-2.5-4.4-4.5c-3.7-7.9-7.3-16-8.1-24.7
				c-0.8-8.7,1.6-18.1,8.2-23.8c4.4-3.8,10.2-5.7,16.1-6.2c5.8-0.5,11.6,0.2,17.4,0.9l-0.1-5.1c0,0,0,0,0,0
				c4.9-0.8,9.6,2.6,10.4,7.5l-0.9-8.5c3.3,2.3,5.2,6.1,5,10.1l0.7-5.8c2,4.7,4,9.6,3.7,14.6c-0.3,5.1-3.5,10.4-8.5,11.2
				c-4.4,0.7-9.4-2-13.3,0.3c-2.8,1.7-3.7,5.3-4.9,8.4c-1.1,3.1-3.6,6.4-6.9,6L301.9,345.5z"/>
			<path fill="#FCD336" d="M199.4,415.4c-0.6-5.8-3.1-12.7-9.4-20.3l-5.6-9.9c-9.4-16.6-27.8-26.1-46.8-24.3l-0.1,0.2
				c-12.2,15.4-16.6,35.4-12,54.4H199.4z"/>
			<path fill="#FCD336" d="M177.4,415.4l2.2-14.2c1.9-12.2-6.6-23.7-18.8-25.5c-1.4-0.2-2.7-0.3-4.1-0.2
				c-12.4,0.4-22,10.8-21.6,23.1l0.6,16.9H177.4z"/>
			<path fill="#FFB6B6" d="M182.1,324.2c0,15.5-12.6,28.1-28.1,28.1c-15.5,0-28.1-12.6-28.1-28.1c0-15.5,12.6-28.1,28.1-28.1
				C169.5,296.1,182.1,308.7,182.1,324.2z"/>
			<path fill="#2F2E41" d="M61.7,349.7c6.4,5,16.2,3.2,22.2-2.2c6-5.4,9-13.4,10.7-21.3c1.7-7.9,2.5-16.1,5.3-23.6
				c2.8-7.6,8.2-14.8,15.9-17.2c7.7-2.5,17.6,1.7,19.3,9.6c3.9-10.6,33.2-9.5,34.7,1.1c5.2,0.9,10.7,2.3,14.4,6.1
				c3.7,3.8,4.5,10.8,0.4,14.2c-1.4,1.1-3.1,1.7-4.9,1.8c-0.6-2.1-0.9-4.3-0.8-6.5c-0.9,2-1.5,4.2-1.8,6.4c-5.1-0.7-5-2.2-10-0.9
				c-5.7,1.4-9.1,8.5-6.8,13.8c-1.3-2.3-5.7-0.8-6.2,2c-0.6,2.9,1.4,5.7,3.3,8c6.7,8.3-7.3,25.8-0.6,34.1l0.9,0.9
				c-11.2-3.5-0.1-20.6-6-30.7c-0.9,0-3.6,3.9-7.8,5.2c-7.5,2.3-25.8-24.5-20.8-31.8c-4.8-3.5-4.1-4.2-9.8-2.7
				c-7.5,2-9.9,11.7-8.6,19.4c1.3,7.7,4.7,15.2,3.6,22.9c-1.2,6.7-5.4,12.4-11.5,15.4c-3,1.5-6.4,2.4-9.8,2.6
				c-0.8-2.4-1.1-4.9-1-7.4c-1,2.4-1.7,4.9-2,7.4c-2.3-0.1-4.5-0.5-6.7-1.1c-5.4-1.5-10.2-4.8-13.4-9.4
				C60.6,360.9,59.8,355,61.7,349.7z"/>
			<path fill="#54A7DC" d="M184.2,432.4l-4.1-40.7L139.4,413c-6.4,4.6-9.7,12-9.3,19.4H184.2z"/>
			<polygon fill="#54A7DC" points="312.8,432.4 288.1,396.6 270.2,432.4 			"/>
			<polygon fill="#54A7DC" points="278.7,432.4 287.7,397.4 291.3,398.2 289.5,394.2 275.1,391.4 256.1,388.4 241.9,376.7 
				218.4,376.3 204.9,385.6 180,392 183.7,432.4 			"/>
			<path fill="#FFB6B6" d="M258.3,342.4c0,15.3-12.4,27.6-27.6,27.6c-15.3,0-27.7-12.4-27.7-27.6c0-15.3,12.4-27.6,27.7-27.6
				C246,314.7,258.3,327.1,258.3,342.4z"/>
			<path fill="#2F2E41" d="M237.4,368.1l3.6-16.3c0.2-1.4,0.7-2.7,1.3-3.9c0.7-1.2,1.9-2.1,3.4-2.2c2.8,0,5,3.6,7.7,2.8
				c2-0.6,2.6-3.2,2.4-5.2c-0.2-2.1-0.6-4.4,0.6-6.1c0.4,0.3,0.8,0.6,1.2,0.8c3.9,1.9,8.5,0.3,10.4-3.5c1.9-3.9,0.3-8.5-3.5-10.4
				c-1.8,1.4-4.3,1.6-6.4,0.8c1.9-3.1,1.1-7.2-1.8-9.3c0.2,1.8-0.9,3.5-2.7,4c-1.8,0.4-3.6,0.1-5.1-0.9c-1.5-1-2.9-2.1-4.2-3.3
				c-4.6-3.8-10.3-6-16.3-6.4c-4.1-0.4-8.2,0.5-11.9,2.5c-3.6,2.1-6.1,5.7-6.7,9.8c-2.5-1.6-5.8-1.3-8,0.8c-2.1,2.1-3.3,4.9-3.5,7.8
				c-0.6,6.4,1.8,12.7,4.3,18.7c1.8,4.3,3.6,8.6,5.5,12.9c0.5,1.4,1.3,2.7,2.3,3.8c1.9,1.8,4.7,2,7.2,2.1l20,1"/>
		</g>
	</g>
</g>
</svg>
